<?xml version="1.0" standalone="no"?>
<!DOCTYPE svg PUBLIC "-//W3C//DTD SVG 20010904//EN"
 "http://www.w3.org/TR/2001/REC-SVG-20010904/DTD/svg10.dtd">
<svg version="1.0" xmlns="http://www.w3.org/2000/svg"
 width="944.000000pt" height="944.000000pt" viewBox="0 0 944.000000 944.000000"
 preserveAspectRatio="xMidYMid meet">
<metadata>
Created by potrace 1.11, written by Peter Selinger 2001-2013
</metadata>
<g transform="translate(0.000000,944.000000) scale(0.100000,-0.100000)"
fill="#000000" stroke="none">
<path d="M4486 9392 c-11 -26 -31 -72 -45 -102 -14 -30 -26 -60 -27 -65 -6
-35 -39 -125 -46 -125 -5 0 -7 -4 -4 -9 4 -5 -1 -40 -10 -78 -9 -37 -18 -93
-21 -123 -5 -65 -32 -113 -71 -129 -36 -14 -229 -44 -241 -37 -5 4 -11 1 -13
-5 -2 -6 -30 -11 -63 -12 -51 -1 -66 2 -96 26 -33 24 -69 96 -61 120 1 5 -1 6
-6 3 -5 -3 -19 16 -31 42 -27 56 -140 219 -170 246 -11 10 -18 23 -14 29 3 5
2 7 -4 4 -5 -3 -23 11 -39 33 -47 63 -49 63 -173 24 -61 -19 -117 -32 -123
-28 -7 4 -8 3 -4 -4 4 -7 1 -13 -8 -13 -20 -2 -25 -3 -61 -18 -16 -7 -43 -15
-58 -18 -37 -8 -43 -25 -52 -163 -12 -180 -1 -376 25 -444 10 -27 0 -75 -25
-112 -14 -22 -75 -61 -75 -49 0 4 -7 -1 -16 -10 -9 -9 -23 -14 -31 -11 -8 3
-12 2 -9 -3 3 -4 -31 -25 -75 -46 -43 -21 -82 -41 -85 -46 -9 -14 -93 -10
-124 6 -16 8 -35 24 -43 35 -37 53 -115 124 -219 199 -37 27 -64 52 -60 56 4
5 2 5 -5 1 -6 -3 -36 9 -65 27 -100 64 -115 70 -141 52 -13 -8 -27 -12 -32 -8
-4 5 -5 3 -1 -4 4 -7 -15 -27 -51 -52 -32 -22 -92 -64 -133 -94 -41 -31 -79
-53 -84 -50 -5 3 -6 1 -2 -5 4 -7 2 -12 -3 -12 -7 0 -10 -22 -9 -59 2 -32 6
-57 11 -54 4 2 7 -4 7 -14 0 -10 14 -63 30 -116 17 -54 28 -103 24 -109 -4 -7
-3 -8 4 -4 7 4 12 1 12 -8 0 -8 24 -61 52 -118 29 -56 53 -107 54 -113 0 -5 4
-22 9 -38 5 -18 2 -38 -8 -60 -17 -35 -227 -246 -265 -266 -30 -16 -109 -4
-133 20 -11 11 -19 17 -19 14 0 -3 -28 9 -63 26 -34 18 -113 49 -174 69 -62
20 -109 41 -105 45 4 5 2 5 -5 2 -9 -6 -74 4 -148 23 -29 7 -46 -7 -100 -84
-32 -47 -64 -82 -70 -79 -5 4 -7 3 -3 -2 7 -8 -30 -68 -84 -136 -33 -41 -32
-47 21 -129 19 -30 34 -60 34 -67 0 -7 2 -11 5 -8 3 2 17 -15 32 -38 15 -23
50 -71 78 -106 28 -35 49 -69 45 -75 -3 -6 -2 -8 2 -4 5 5 28 -11 53 -35 25
-23 56 -52 69 -65 15 -13 22 -29 19 -38 -3 -9 -2 -12 5 -9 7 5 9 -11 7 -47 -2
-37 -7 -52 -16 -50 -8 1 -11 -2 -8 -7 8 -13 -105 -241 -116 -235 -4 3 -5 -1
-3 -8 14 -35 -93 -86 -140 -68 -13 5 -52 12 -87 15 -34 4 -70 9 -78 12 -39 14
-411 -5 -428 -21 -3 -3 -20 -51 -38 -106 -18 -56 -36 -109 -40 -118 -4 -9 -8
-22 -9 -28 -10 -47 -39 -130 -46 -135 -9 -5 66 -89 80 -89 5 0 15 -7 22 -17 8
-9 35 -33 61 -54 26 -20 45 -39 42 -43 -2 -3 -1 -4 2 -1 4 2 32 -13 63 -34 60
-41 211 -121 228 -121 6 0 22 -15 36 -33 29 -38 47 -107 28 -107 -7 0 -9 -4
-6 -10 7 -12 -5 -111 -14 -106 -3 2 -7 -23 -8 -56 -3 -97 -27 -163 -68 -188
-19 -12 -45 -20 -57 -19 -13 1 -30 0 -38 -3 -8 -3 -46 -11 -85 -18 -91 -15
-264 -71 -370 -120 l-85 -39 0 -210 0 -211 51 -26 c70 -35 209 -87 303 -114
94 -26 94 -26 180 -35 79 -9 129 -34 145 -73 6 -15 17 -72 26 -127 8 -55 19
-124 24 -153 20 -104 -5 -142 -137 -206 -49 -24 -114 -61 -143 -82 -29 -20
-59 -37 -66 -37 -7 0 -11 -2 -8 -5 8 -8 -67 -62 -78 -55 -6 3 -7 1 -3 -5 3 -6
-17 -29 -48 -54 -29 -24 -58 -51 -64 -60 -9 -13 2 -59 51 -210 34 -106 65
-198 69 -204 16 -25 352 -34 488 -12 117 18 181 17 212 -4 38 -25 178 -306
178 -357 0 -44 -41 -108 -83 -130 -15 -8 -27 -17 -27 -20 0 -4 -12 -20 -28
-37 -15 -16 -42 -50 -61 -74 -19 -25 -39 -49 -46 -55 -11 -10 -122 -188 -144
-233 -11 -20 -7 -30 34 -85 25 -34 46 -66 46 -72 1 -5 10 -16 20 -23 11 -7 19
-17 19 -23 0 -5 11 -22 24 -37 44 -49 76 -103 70 -115 -4 -7 -4 -9 1 -5 4 4
13 4 19 -1 24 -19 319 62 444 121 37 18 73 32 80 31 7 0 11 2 8 5 -3 3 7 13
24 23 32 20 91 27 130 15 30 -10 244 -218 266 -259 18 -34 11 -98 -14 -137
-48 -75 -152 -345 -152 -395 0 -9 -4 -13 -10 -10 -5 3 -7 0 -4 -8 3 -8 -1 -42
-9 -76 l-14 -62 38 -27 c107 -74 184 -136 181 -144 -1 -5 2 -7 6 -4 5 3 35
-13 66 -35 l57 -41 77 43 c42 23 110 66 150 96 39 29 72 51 72 49 0 -10 161
147 171 167 21 38 132 62 161 35 7 -7 20 -14 28 -16 31 -7 159 -79 153 -86 -4
-4 -1 -5 7 -2 23 9 92 -35 112 -70 10 -18 19 -45 19 -60 1 -30 -20 -178 -28
-204 -7 -21 -6 -199 2 -295 11 -140 3 -130 113 -166 53 -17 102 -35 107 -39 6
-5 13 -8 18 -8 25 -1 67 -15 67 -23 0 -6 4 -8 9 -5 5 3 28 -1 52 -9 24 -9 49
-13 55 -11 7 3 47 44 89 93 43 48 82 87 87 85 5 -1 7 2 4 7 -4 5 13 38 37 73
47 67 127 214 127 232 0 15 60 61 88 68 12 4 91 -5 175 -18 188 -30 199 -32
192 -44 -3 -5 0 -7 8 -4 23 9 54 -54 62 -126 4 -36 18 -107 31 -159 13 -51 21
-98 17 -104 -3 -5 -2 -7 4 -4 5 3 18 -19 27 -51 10 -31 35 -94 56 -139 l39
-83 211 0 c178 0 212 2 216 15 4 8 11 12 17 8 5 -3 7 -1 4 4 -4 6 6 39 22 74
29 67 42 97 47 114 47 149 66 224 76 299 13 99 36 149 78 165 33 13 231 43
238 36 3 -2 11 0 18 6 7 6 37 11 67 12 74 2 106 -27 163 -143 24 -50 61 -117
83 -149 22 -32 38 -61 36 -65 -3 -3 -2 -4 1 -2 4 3 24 -18 46 -46 112 -141
152 -172 193 -146 6 3 30 12 55 19 55 15 52 14 70 22 74 28 110 38 119 32 6
-3 11 -2 11 4 0 5 23 17 50 26 28 9 50 21 50 26 0 6 3 8 8 6 4 -3 7 23 8 56 0
34 1 127 3 207 2 136 -8 253 -28 310 -18 54 26 140 78 152 8 2 23 11 33 21 11
10 26 16 34 13 8 -3 14 -2 14 3 0 17 178 101 214 101 20 0 36 -4 36 -10 0 -5
7 -7 15 -4 8 4 26 -6 42 -24 16 -16 45 -47 66 -69 20 -22 34 -43 30 -48 -5 -4
-3 -5 4 -2 6 4 30 -9 53 -28 24 -20 62 -50 86 -67 24 -17 41 -35 37 -41 -4 -6
-1 -7 6 -2 8 4 24 -1 39 -12 15 -11 57 -37 95 -57 67 -38 68 -38 94 -19 14 10
33 23 42 28 9 6 18 12 21 15 22 24 64 49 74 43 6 -3 8 -2 3 2 -4 5 36 40 88
78 69 49 94 74 91 86 -17 56 -35 154 -30 162 3 5 1 9 -4 9 -7 0 -52 129 -58
165 -2 18 -45 105 -81 167 -26 44 -34 68 -31 93 2 19 0 32 -4 29 -4 -3 -2 10
4 28 16 47 233 265 273 274 52 13 98 3 159 -32 70 -42 226 -106 286 -119 82
-18 170 -41 170 -45 0 -3 14 -5 31 -4 23 1 38 10 57 35 15 19 30 36 34 37 5 2
8 8 8 13 0 18 43 68 53 62 6 -3 7 -2 4 4 -4 6 16 41 44 79 27 38 57 79 65 91
15 21 14 26 -18 85 -18 34 -41 71 -51 82 -10 11 -15 27 -12 35 3 9 3 12 -1 9
-3 -4 -27 21 -51 55 -25 34 -57 74 -71 90 -14 15 -23 27 -19 27 8 0 -44 51
-100 97 -46 38 -66 82 -60 134 4 35 33 99 49 110 5 3 9 9 8 13 -1 9 59 134 87
178 17 29 34 41 70 51 29 9 57 11 70 6 101 -37 551 -40 588 -3 7 7 16 10 20 6
5 -4 5 -1 1 5 -9 15 72 263 85 263 6 0 7 5 4 10 -4 6 1 33 10 61 18 53 14 66
-28 97 -9 7 -14 18 -11 24 4 6 2 8 -4 4 -6 -3 -25 8 -44 25 -43 40 -213 162
-258 184 -19 10 -38 22 -41 27 -3 5 -10 9 -15 9 -15 -2 -104 39 -104 47 0 5
-10 19 -22 32 -18 19 -22 34 -21 79 1 31 6 57 12 59 6 2 8 8 5 13 -7 12 23
214 38 252 6 15 15 27 20 27 5 0 18 8 29 19 13 12 43 21 87 25 37 4 96 14 132
22 36 9 72 17 80 19 8 2 57 19 109 39 52 19 98 33 102 30 4 -2 9 0 11 5 1 4
27 20 56 35 l52 26 0 210 0 210 -67 33 c-38 17 -70 34 -73 37 -3 3 -14 7 -25
8 -11 2 -22 7 -25 10 -3 4 -14 8 -26 9 -11 1 -34 8 -50 14 -37 15 -32 14 -77
23 -20 5 -40 12 -43 17 -3 5 -9 7 -13 5 -4 -3 -25 0 -47 5 -21 5 -66 12 -99
15 -87 8 -131 39 -141 99 -1 11 -8 46 -14 78 -6 33 -9 65 -6 73 3 8 2 14 -3
14 -10 0 -27 121 -23 163 2 30 50 97 68 97 16 0 137 64 214 114 67 42 86 57
151 114 23 20 43 31 50 26 7 -4 9 -3 6 3 -4 6 13 29 37 51 33 31 41 43 34 56
-5 9 -11 24 -13 34 -2 9 -10 36 -19 60 -8 23 -13 42 -9 42 3 0 1 6 -4 13 -6 6
-27 63 -47 125 -21 61 -38 112 -39 113 -39 14 -406 27 -427 14 -6 -4 -25 -6
-43 -4 -17 1 -39 -1 -47 -4 -73 -26 -126 -26 -178 2 -27 15 -76 97 -66 112 4
7 3 9 -3 6 -10 -6 -37 43 -33 59 1 4 -3 10 -8 13 -5 3 -24 34 -41 68 -51 102
-40 153 48 228 32 28 68 65 81 82 12 18 26 30 31 27 5 -3 8 -1 7 4 -4 12 83
132 95 132 6 0 8 3 4 6 -3 3 9 29 27 57 18 29 43 71 55 95 l22 44 -25 33 c-14
19 -26 36 -26 39 0 3 -9 15 -20 26 -12 12 -18 26 -14 33 4 7 4 9 -1 5 -7 -6
-39 33 -123 150 -13 18 -21 36 -18 40 16 27 -151 -3 -306 -54 -43 -14 -83 -22
-90 -18 -7 4 -10 4 -7 0 11 -12 -200 -115 -249 -122 -32 -5 -43 -3 -38 5 5 7
1 9 -8 5 -19 -7 -219 184 -209 199 3 6 2 7 -4 4 -13 -8 -48 30 -58 63 -14 45
-5 103 25 151 47 77 129 286 146 374 1 6 7 37 15 70 7 33 14 66 15 73 1 7 -19
27 -44 44 -100 69 -177 131 -174 140 1 5 -2 7 -8 3 -5 -3 -34 13 -64 35 l-55
42 -58 -32 c-31 -17 -70 -41 -85 -51 -15 -11 -34 -17 -40 -13 -7 4 -10 4 -6 0
6 -7 -113 -106 -127 -106 -4 0 -18 -13 -32 -30 -13 -16 -30 -30 -36 -30 -7 -1
-28 -21 -46 -45 -19 -24 -39 -41 -45 -38 -5 3 -6 1 -2 -5 12 -19 -54 -52 -105
-52 -25 0 -49 4 -55 9 -5 5 -69 39 -141 75 -87 44 -139 76 -150 93 -22 33 -23
95 -4 213 14 91 17 253 7 366 -11 117 -15 134 -34 134 -17 0 -304 92 -312 100
-3 3 -12 5 -20 6 -8 1 -24 4 -36 8 -16 5 -30 -4 -65 -41 -113 -122 -204 -250
-265 -375 -72 -148 -89 -157 -268 -128 -72 12 -142 24 -156 27 -14 4 -29 5
-33 5 -19 -5 -63 29 -79 60 -13 28 -39 169 -42 231 0 9 -3 17 -7 17 -4 0 -11
19 -15 43 -10 51 -7 44 -28 90 -9 21 -14 42 -11 47 4 6 3 10 -2 10 -4 0 -19
28 -32 62 -14 35 -33 77 -44 95 l-19 33 -211 0 -212 0 -19 -48z m549 -3061
c50 -12 101 -23 115 -26 53 -13 212 -69 224 -79 6 -6 18 -12 26 -14 26 -5 100
-43 100 -51 0 -4 6 -8 13 -8 36 -1 284 -180 279 -202 -1 -7 1 -10 6 -7 13 8
53 -24 46 -36 -4 -6 -2 -8 3 -5 14 9 115 -101 107 -115 -4 -7 -2 -8 4 -4 11 6
142 -156 142 -176 0 -5 9 -18 20 -30 29 -31 102 -186 94 -200 -4 -7 -3 -8 4
-4 7 4 13 2 13 -3 3 -20 5 -26 18 -49 7 -13 10 -30 7 -38 -3 -8 -1 -12 4 -9
15 9 86 -264 76 -290 -3 -8 0 -15 7 -18 21 -7 16 -431 -6 -550 -12 -62 -23
-95 -29 -90 -6 3 -8 1 -5 -5 8 -12 -13 -113 -22 -108 -3 2 -7 -9 -7 -26 -1
-17 -5 -33 -10 -37 -5 -3 -10 -13 -12 -21 -14 -64 -148 -314 -164 -304 -4 3
-5 -1 -3 -9 3 -7 -6 -26 -20 -41 -14 -15 -25 -30 -25 -33 0 -3 -29 -40 -65
-83 -82 -98 -183 -192 -197 -184 -6 4 -8 2 -4 -4 8 -13 -33 -44 -47 -35 -6 3
-7 1 -4 -5 7 -10 -59 -63 -123 -98 -19 -10 -41 -24 -48 -31 -14 -14 -128 -70
-152 -75 -8 -2 -17 -6 -20 -9 -24 -32 -300 -110 -450 -129 -124 -15 -422 -7
-510 14 -36 9 -76 18 -90 21 -111 25 -159 41 -285 98 -139 62 -269 142 -259
159 4 7 3 8 -5 4 -15 -10 -193 133 -184 147 3 6 1 7 -5 3 -20 -12 -257 276
-247 302 2 7 1 10 -5 7 -18 -11 -123 193 -172 334 -23 67 -55 193 -62 241 -3
19 -10 62 -15 95 -26 158 -4 467 46 635 9 30 18 64 20 74 7 37 73 190 85 198
7 4 10 8 5 8 -7 0 32 79 76 152 89 150 253 329 406 446 80 62 215 143 229 137
7 -2 11 -1 8 4 -7 11 224 115 264 119 3 0 32 8 65 17 32 10 71 19 85 20 14 1
32 5 40 9 76 31 473 29 615 -3z"/>
</g>
</svg>
